<?xml version="1.0" encoding="UTF-8"?>
<svg version="1.1" viewBox="0 0 2048 2052" width="512" height="513" xmlns="http://www.w3.org/2000/svg">
<path transform="translate(1019,91)" d="m0 0h210l117 3 71 3 67 4 63 5 57 6 46 6 49 8 35 7 40 10 36 12 24 11 15 9 11 9 7 8 4 8v11l-6 42-7 54-10 76-10 77-8 61-10 75-16 123-10 87-9 76-7 62-11 96-10 85-14 122-12 105-8 69-10 85-15 133-10 86-6 51-3 17-7 16-9 14-13 15-13 12-14 11-19 12-18 10-27 13-28 11-33 11-42 11-41 9-47 8-54 7-54 5-64 4-52 2h-134l-64-2-76-4-64-5-57-6-45-6-49-8-50-10-56-14-26-8-31-11-26-11-25-12-19-11-16-11-13-11-14-14-8-12-3-20-19-161-13-112-23-196-13-112-19-161-13-113-17-143-15-127-22-181-22-183-12-97 1-5 7-6 14-9 23-11 36-12 38-10 37-8 45-8 53-8 65-8 61-6 76-6 87-5 63-3 88-3 89-2zm3 40-91 2-81 3-72 4-70 5-66 6-79 9-79 11-55 9-43 8-43 9-48 11-4 2 2 2 34 9 42 9 41 7 52 7 57 6 59 5 62 4 39 2 55 2 84 2h176l131-3 92-3 101-4 117-6 92-6 83-7 48-5 46-6 41-7 27-6 16-5 9-4-2-2-25-9-23-7-43-10-48-9-45-7-58-7-62-6-53-4-68-4-66-3-112-3-65-1zm-781 109 2 24 18 156 10 85 14 122 13 110 5 41 1 4 20-2 29-2h62l37 2 53 5 54 7 55 9 52 10 55 12 58 14 43 11 71 20 44 13 39 12 42 12 40 10 48 10 37 6 41 5 36 3 42 2h27l43-2 34-3 44-6 36-7 33-8 28-8 36-12 33-13 20-9 25-12 27-14 17-10 21-13 19-13 14-10 26-20 7-6 8-58 11-77 30-211 17-120 9-61v-5l-10 2-25 6-41 7-52 7-66 7-68 6-79 6-108 7-124 7-80 4-88 4-87 3-47 1h-116l-47-1-102-4-62-4-58-5-65-7-46-6-48-7-45-8-44-9-46-11-28-8z"/>
</svg>
